#N canvas 516 25 562 233 10;
#X obj 40 23 hsl 128 15 200 6000 1 0 empty empty frequenza -2 -8 0
10 -4034 -1 -1 0 1;
#X obj 131 59 vsl 15 100 0 0.8 0 0 empty empty volume 0 -9 0 10 -260097
-1 -1 0 1;
#X floatatom 131 171 5 0 0 0 - - -;
#X floatatom 37 47 5 0 0 0 - - -;
#X obj 37 101 osc~;
#X obj 37 154 *~;
#X obj 37 181 dac~;
#X text 204 14 semplice 'patch' per sperimentare la generazione di
un semplice tono sinusoidale tramite l'oggetto osc~. lo SLIDER verde
si occupa della intonazione dell'oscillatore lo SLIDER arancione invece
si occupa delal gestione del volume.;
#X connect 0 0 3 0;
#X connect 1 0 2 0;
#X connect 2 0 5 1;
#X connect 3 0 4 0;
#X connect 4 0 5 0;
#X connect 5 0 6 0;
#X connect 5 0 6 1;
